<svg width="41" height="48" viewBox="0 0 41 48" fill="none" xmlns="http://www.w3.org/2000/svg">
<g clip-path="url(#clip0_2421_5772)">
<path d="M28.9002 8.64453C34.5485 11.3744 38.6198 15.6114 40.2254 21.7535C42.2897 29.545 40.2827 36.3981 34.4911 42.0853C29.359 47.09 21.3597 48.0284 18.4639 47.346C19.1807 46.9479 19.8114 46.6066 20.4422 46.3223C22.8793 45.2133 25.3163 44.1611 27.7247 43.0237C28.4913 42.6623 29.2293 42.2441 29.9324 41.7725C30.255 41.5648 30.5173 41.2771 30.6933 40.938C30.8693 40.5988 30.9529 40.2199 30.9359 39.8388C30.9072 39.0426 30.8212 38.2464 30.8499 37.4218C30.9072 35.9431 30.9072 34.4076 31.1653 32.9289C31.3373 32.1327 31.9107 31.3933 32.3695 30.6824C33.4876 28.9763 34.6058 27.2701 35.2366 25.308C36.0394 22.7204 35.724 20.3317 33.9751 18.2559C32.9991 17.1505 31.9554 16.1059 30.8499 15.1279C29.8836 14.2703 29.2287 13.1212 28.9862 11.8578C28.8429 10.8341 28.7855 9.81041 28.6995 8.78671L28.9002 8.64453Z" fill="#EB6698"/>
<path d="M5.99247 41.545C1.69177 37.1659 -0.31523 31.8768 0.0574974 25.8199C0.430225 19.763 3.154 15.2417 7.56939 11.3744C7.97005 12.0991 8.41033 12.8016 8.88827 13.4787C9.6624 14.5308 10.5512 15.4976 11.3253 16.5497C11.7984 17.1848 12.2294 17.8497 12.6155 18.5403C12.9309 19.0805 12.7876 19.6208 12.5009 20.1327C12.2141 20.6445 12.1281 20.8436 11.8988 21.1848C11.6694 21.526 11.6981 21.7251 12.0708 21.8957C11.2393 22.5782 10.5512 23.3459 10.2645 24.3981C9.97778 25.4502 10.3792 26.417 11.0386 27.3554L9.97778 28.1232C7.74142 29.7725 6.04981 31.7915 5.24701 34.436C4.61752 36.5182 4.79125 38.7581 5.73443 40.7204L6.10715 41.4881L5.99247 41.545Z" fill="#EB6698"/>
<path d="M32.714 28.0948L33.2301 25.7062C33.4321 24.8009 33.4368 23.8633 33.244 22.9561C33.0512 22.0488 32.6652 21.1929 32.1119 20.4455C31.1085 19.0522 30.0189 17.7441 28.9581 16.4076C27.8973 15.0711 26.8938 13.4218 26.5784 11.6019C26.4869 10.9136 26.439 10.2203 26.435 9.5261C26.4063 7.3934 25.8903 5.37444 24.4854 3.69671C23.8653 2.91598 23.0895 2.27056 22.2064 1.80084C21.3233 1.33112 20.352 1.0472 19.3532 0.966853C17.9196 0.853109 16.6581 1.33652 15.3105 1.81993C15.5973 1.39339 16.4001 0.90998 17.2315 0.597184C18.3764 0.137372 19.612 -0.0571431 20.8441 0.0284637C22.2272 0.0637396 23.5467 0.611587 24.5427 1.56401C25.2058 2.23198 25.8102 2.955 26.349 3.72515C26.9381 4.64526 27.3105 5.68526 27.4385 6.7678C27.5819 7.84837 27.6105 8.95738 27.7539 10.0664C27.8973 11.1754 27.8686 12.8531 28.6714 14.0474C29.2787 14.9352 29.97 15.7636 30.7357 16.5214C31.8252 17.6304 33.0868 18.5972 33.8896 19.9621C34.6924 21.327 34.9504 23.6019 34.1476 25.4503C33.7462 26.3602 33.3161 27.2417 32.8861 28.1517L32.714 28.0948Z" fill="url(#paint0_radial_2421_5772)"/>
<path d="M9.86301 45.4976L10.6945 46.1516C11.9273 47.1753 13.3609 47.3175 14.7945 46.8056C16.1538 46.2786 17.4841 45.6806 18.7798 45.0142L27.2378 40.9478C27.6463 40.7552 28.0311 40.5167 28.3847 40.2369C28.7861 39.9241 28.8721 39.4691 28.8434 38.9573C28.7578 37.8315 28.7291 36.7021 28.7574 35.5734C28.8434 34.2085 29.0728 32.872 29.2162 31.5071C29.3595 30.1421 29.5315 28.8625 29.6176 27.526C29.7036 26.1895 29.7609 25.2511 29.7322 24.1421C29.6749 22.5497 29.3308 21.0426 28.442 19.7061C28.1111 19.2797 27.757 18.8715 27.3812 18.4834L27.4672 18.3412C27.7826 18.5687 28.1553 18.7393 28.442 18.9668C29.9329 20.2464 30.621 21.8673 30.7357 23.7725C30.8073 24.5666 30.8361 25.3639 30.8218 26.1611C30.7071 27.6966 30.5064 29.2322 30.3343 30.7677C30.2483 31.7345 30.105 32.6729 30.0476 33.6398C29.9903 34.6066 29.8469 35.9431 29.8183 37.109C29.8136 37.7931 29.8519 38.4769 29.9329 39.1563C29.9903 39.9241 29.8756 40.635 29.1588 41.0331C27.6392 41.8293 26.0623 42.5687 24.5141 43.308C22.1343 44.4454 19.7259 45.5545 17.3749 46.7203C16.2854 47.2606 15.1959 47.7725 13.9917 47.9431C13.1288 48.1059 12.2356 47.9613 11.4697 47.5347C10.7039 47.1081 10.1145 46.4269 9.80566 45.6113C9.80566 45.5829 9.83434 45.5545 9.86301 45.4976Z" fill="url(#paint1_radial_2421_5772)"/>
<path d="M12.3857 42.7962C10.8375 41.545 9.48992 40.0379 9.05985 37.9621C8.74446 36.5403 9.23188 35.1185 10.6368 34.7204C11.0652 34.5842 11.5284 34.6039 11.9435 34.7759C12.3586 34.9478 12.6983 35.2608 12.9018 35.6587C13.0738 35.9715 13.2172 36.0568 13.6186 35.8578C13.9685 35.6528 14.3764 35.5668 14.7801 35.613C15.1839 35.6592 15.5613 35.835 15.855 36.1137C16.1593 36.368 16.3736 36.7122 16.4664 37.0959C16.5593 37.4797 16.5259 37.8829 16.371 38.2464C16.1271 38.9159 15.7574 39.5334 15.2815 40.0663C14.3927 41.0331 13.3892 41.8578 12.3857 42.7962Z" fill="url(#paint2_radial_2421_5772)"/>
<path d="M12.6726 27.3554C12.3859 27.0426 12.0992 26.7867 11.8125 26.5024C11.5258 26.218 11.067 25.0806 11.4398 24.2275C11.8125 23.3744 12.5579 22.9194 13.2747 22.3791L16.1419 20.0758C16.8873 19.4787 17.2887 18.654 17.5754 17.7441C17.6464 17.4461 17.7325 17.1519 17.8335 16.8625C18.038 17.3059 18.139 17.7892 18.1291 18.2766C18.1191 18.764 17.9985 19.2429 17.7761 19.6777C17.26 20.7583 16.3712 21.4692 15.3964 22.0948C14.4216 22.7204 13.7908 23.1185 13.0454 23.7441C12.2999 24.3697 12.2139 25.8483 13.3034 26.6161C13.9342 27.0711 14.7083 27.3554 15.4251 27.7251L15.8838 27.981L15.8265 28.1517L14.4216 27.9526C14.21 27.914 13.9919 27.9336 13.7908 28.0095C12.5006 28.7204 11.2964 29.545 10.4076 30.7109C9.51878 31.8768 9.11738 32.3033 8.65863 33.1848C8.22109 34.0459 7.91204 34.9655 7.74116 35.9147C7.35326 37.6263 7.58678 39.4187 8.40059 40.9763C8.96057 42.0378 9.74257 42.9685 10.6943 43.7061C10.9513 43.9571 11.1819 44.2334 11.3824 44.5308C10.7803 44.1896 10.1782 43.9052 9.60479 43.5355C8.05654 42.455 6.82367 41.09 6.25024 39.2417C5.74109 37.6379 5.81208 35.9082 6.45095 34.3507C7.09706 32.5754 8.15823 30.9772 9.54745 29.6872C10.3216 29.0047 11.2104 28.436 12.0419 27.8104L12.6726 27.3554Z" fill="url(#paint3_radial_2421_5772)"/>
<path d="M13.6475 44.9005C14.3929 44.4455 15.1384 44.019 15.8265 43.5356C16.5146 43.0522 17.4607 42.2559 18.2635 41.6019L23.3957 37.5356C23.556 37.3984 23.7408 37.2923 23.9405 37.2228C24.5712 36.8815 24.6859 36.7394 24.5426 36.0285C24.3276 34.6146 24.3276 33.1769 24.5426 31.7631C24.6573 30.8247 24.6286 29.8578 24.7719 28.9195C24.9726 27.2986 24.6573 25.7346 24.2272 24.1138C25.288 24.6256 25.6607 25.5071 25.8328 26.474C26.1482 28.237 25.9188 30 25.8614 31.7631C25.8041 33.5261 25.6034 35.2891 26.2055 36.9953C26.2534 37.1123 26.2533 37.2433 26.2051 37.3602C26.1568 37.4772 26.0644 37.5707 25.9475 37.6209C24.7433 38.4171 23.5391 39.2133 22.3922 40.1233C20.5286 41.5451 18.751 43.1375 16.6293 44.218C15.7405 44.6446 14.5649 45.0142 13.6475 44.9005Z" fill="url(#paint4_radial_2421_5772)"/>
<path d="M26.808 24.3981C26.378 22.9194 25.2598 22.0379 24.0269 21.2701C23.1272 20.7416 22.265 20.1525 21.4465 19.5071C20.6437 18.9099 20.2423 18.0568 20.5577 17.0331C20.8731 16.0094 21.2171 15.2985 21.5325 14.417C21.781 13.8226 21.8313 13.165 21.6759 12.5403C21.3318 11.4312 20.4143 10.9194 19.4108 10.4929C17.8912 9.86726 16.343 9.29854 14.8521 8.64452C13.3612 7.99049 12.9598 7.30802 12.8164 6.08527C12.767 5.55246 12.828 5.01526 12.9957 4.50669C13.1633 3.99812 13.434 3.52892 13.7912 3.12793C13.7052 3.52603 13.6766 3.8957 13.5619 4.26537C13.1605 5.77248 14.078 7.0521 15.3682 7.62082C16.6584 8.18954 18.2353 8.72982 19.6689 9.29854C20.5122 9.64103 21.3354 10.0303 22.1346 10.4644C22.6449 10.7686 23.0379 11.2334 23.251 11.7849C23.464 12.3363 23.4848 12.9426 23.3101 13.5071C23.0808 14.3886 22.708 15.2132 22.3926 16.0663C22.0773 16.9194 21.6472 18.0568 22.5073 18.9668C22.9728 19.4175 23.4928 19.8091 24.0556 20.1327C24.9731 20.7298 25.8619 21.327 26.4066 22.3507C26.7228 22.9852 26.8615 23.6923 26.808 24.3981Z" fill="url(#paint5_radial_2421_5772)"/>
<path d="M14.9668 3.61135C15.9703 3.44073 16.9451 3.21324 17.9199 3.0995C18.6835 2.99527 19.4605 3.04479 20.2044 3.24511C20.9482 3.44543 21.6437 3.79243 22.2493 4.26537C23.3033 5.12475 24.0972 6.25652 24.543 7.53552C25.0261 8.84717 25.2688 10.2339 25.2598 11.6303C25.2885 12.7109 25.2598 13.8767 25.8619 14.872C26.2123 15.3704 26.5954 15.8453 27.0088 16.2938C26.3206 16.3791 24.7437 15.5545 24.457 14.5308C24.1985 13.4999 23.9975 12.4557 23.8549 11.4028C23.6255 9.29855 23.1095 7.27959 21.6759 5.6303C20.7499 4.61309 19.4688 3.98288 18.092 3.86727C17.0598 3.78196 16.0276 3.78196 14.9955 3.72509C14.9668 3.69665 14.9668 3.66822 14.9668 3.61135Z" fill="url(#paint6_radial_2421_5772)"/>
<path d="M13.4184 20.8152C13.5768 20.3527 13.692 19.8768 13.7624 19.3934C13.8771 18.1991 13.2463 17.2607 12.5582 16.3507C11.44 14.9289 10.2932 13.5071 9.20368 12.0284C8.55736 11.123 8.21616 10.0382 8.22886 8.92891C8.22408 7.65622 8.68216 6.4245 9.51907 5.45972C10.0265 4.83769 10.6886 4.35746 11.4401 4.06635C11.7669 3.96054 12.1028 3.8844 12.4435 3.83887C11.5547 4.63508 10.6373 5.31754 10.0352 6.34123C9.43306 7.36493 9.20368 9.01422 9.6911 10.436C10.1785 11.8578 11.096 12.91 11.9848 14.019C12.8736 15.128 13.8771 16.237 14.3072 17.6872C14.7373 19.1374 14.2498 20.218 13.4184 20.8152Z" fill="url(#paint7_radial_2421_5772)"/>
<path d="M12.1856 6.4834C12.1569 6.93837 12.0996 7.39335 12.0996 7.84833C12.0307 8.64814 12.2774 9.44327 12.7877 10.0663C13.4184 10.7772 13.1604 11.545 12.9597 12.3412L12.8737 12.5687C12.7017 13.0237 12.759 13.2796 13.3324 13.3365C13.9059 13.3934 13.8772 13.6777 14.1639 13.763C14.4563 13.8224 14.7542 13.851 15.0527 13.8483C14.6226 14.5024 15.2534 15.0142 15.3394 15.6398C15.4254 16.2654 15.8268 16.2085 16.2569 16.0379C16.687 15.8673 17.8625 15.2986 18.6653 14.9573C19.4681 14.6161 19.6688 14.5024 20.2135 14.7583C20.3939 14.88 20.5663 15.0129 20.7296 15.1564C20.1849 15.2417 19.6975 15.2133 19.2961 15.3839C18.7034 15.6817 18.1289 16.0141 17.5758 16.3791C17.031 16.7488 16.4576 17.0616 15.7982 16.891C15.1387 16.7204 14.6513 16.0948 14.4793 15.3554C14.4655 15.1942 14.3944 15.043 14.2786 14.9289C13.7625 14.5024 13.3898 13.8483 12.5296 13.8199C12.0996 13.8199 11.9562 13.2796 12.0996 12.654C12.2429 12.0284 12.3576 11.7156 12.5009 11.1753C11.8702 11.2606 11.3828 11.1185 11.0674 10.5498L12.3289 10.6351C11.1534 9.21326 11.1821 7.84833 12.1856 6.4834Z" fill="url(#paint8_radial_2421_5772)"/>
</g>
<defs>
<radialGradient id="paint0_radial_2421_5772" cx="0" cy="0" r="1" gradientUnits="userSpaceOnUse" gradientTransform="translate(25.0215 14.0759) scale(12.1566 12.0569)">
<stop stop-color="#1852A0"/>
<stop offset="0.99" stop-color="#23365D"/>
<stop offset="1" stop-color="#23365D"/>
</radialGradient>
<radialGradient id="paint1_radial_2421_5772" cx="0" cy="0" r="1" gradientUnits="userSpaceOnUse" gradientTransform="translate(20.3194 33.1791) scale(12.9222 12.8161)">
<stop stop-color="#1852A0"/>
<stop offset="0.99" stop-color="#23365D"/>
<stop offset="1" stop-color="#23365D"/>
</radialGradient>
<radialGradient id="paint2_radial_2421_5772" cx="0" cy="0" r="1" gradientUnits="userSpaceOnUse" gradientTransform="translate(12.7412 38.7156) scale(3.95378 3.92133)">
<stop stop-color="#1852A0"/>
<stop offset="0.99" stop-color="#23365D"/>
<stop offset="1" stop-color="#23365D"/>
</radialGradient>
<radialGradient id="paint3_radial_2421_5772" cx="0" cy="0" r="1" gradientUnits="userSpaceOnUse" gradientTransform="translate(12.0218 30.7052) scale(10.7661 10.6777)">
<stop stop-color="#1852A0"/>
<stop offset="0.99" stop-color="#23365D"/>
<stop offset="1" stop-color="#23365D"/>
</radialGradient>
<radialGradient id="paint4_radial_2421_5772" cx="0" cy="0" r="1" gradientUnits="userSpaceOnUse" gradientTransform="translate(19.9437 34.5157) scale(8.65014 8.57915)">
<stop stop-color="#1852A0"/>
<stop offset="0.99" stop-color="#23365D"/>
<stop offset="1" stop-color="#23365D"/>
</radialGradient>
<radialGradient id="paint5_radial_2421_5772" cx="0" cy="0" r="1" gradientUnits="userSpaceOnUse" gradientTransform="translate(19.8122 13.7687) scale(9.05728 8.98294)">
<stop stop-color="#1852A0"/>
<stop offset="0.99" stop-color="#23365D"/>
<stop offset="1" stop-color="#23365D"/>
</radialGradient>
<radialGradient id="paint6_radial_2421_5772" cx="0" cy="0" r="1" gradientUnits="userSpaceOnUse" gradientTransform="translate(20.9878 9.6739) scale(6.3593 6.30711)">
<stop stop-color="#1852A0"/>
<stop offset="0.99" stop-color="#23365D"/>
<stop offset="1" stop-color="#23365D"/>
</radialGradient>
<radialGradient id="paint7_radial_2421_5772" cx="0" cy="0" r="1" gradientUnits="userSpaceOnUse" gradientTransform="translate(11.3311 12.3384) scale(6.43385 6.38104)">
<stop stop-color="#1852A0"/>
<stop offset="0.99" stop-color="#23365D"/>
<stop offset="1" stop-color="#23365D"/>
</radialGradient>
<radialGradient id="paint8_radial_2421_5772" cx="0" cy="0" r="1" gradientUnits="userSpaceOnUse" gradientTransform="translate(15.91 11.7071) scale(5.05762 5.01611)">
<stop stop-color="#1852A0"/>
<stop offset="0.99" stop-color="#23365D"/>
<stop offset="1" stop-color="#23365D"/>
</radialGradient>
<clipPath id="clip0_2421_5772">
<rect width="41" height="48" fill="white"/>
</clipPath>
</defs>
</svg>
