<svg width="15" height="15" viewBox="0 0 15 15" fill="none" xmlns="http://www.w3.org/2000/svg">
<g clip-path="url(#clip0_2421_5904)">
<path d="M3.04492 9.84612V3.51799C3.04633 2.09791 4.20273 0.942444 5.62305 0.942444C7.04336 0.942444 8.19977 2.09791 8.20094 3.51822L8.20117 9.84612H3.04492Z" fill="#656D78"/>
<path d="M5.62305 1.17682C6.91398 1.17682 7.96539 2.22729 7.9668 3.51799V9.61174H3.2793L3.27953 3.51846C3.2807 2.22729 4.33188 1.17682 5.62305 1.17682ZM5.62305 0.708069C4.07055 0.708069 2.81219 1.96596 2.81078 3.51799H2.81055V10.0805H8.43555V3.51799H8.43531C8.43391 1.96596 7.17508 0.708069 5.62305 0.708069Z" fill="#DA4453"/>
<path d="M10.3105 14.7629H8.43555V10.0827V10.0801H10.3105V11.0129V14.7629Z" fill="#965353"/>
<path d="M8.43477 10.0801V10.0827H0.587891C0.393359 10.0827 0.236328 9.92563 0.236328 9.73109C0.236328 9.53656 0.393359 9.37953 0.587891 9.37953V9.37695H1.4082H8.43477V10.0801Z" fill="#ED5565"/>
<path d="M4.68945 4.22369H6.0957V5.16119H4.68945V4.22369Z" fill="#E6E9ED"/>
<path d="M6.0957 4.21877V4.22369H4.68945V4.21877L4.92383 3.52057H5.86602L6.0957 4.21877Z" fill="#CCD1D9"/>
<path d="M5.86621 3.52057H7.96574V4.22369H6.0959V4.21877L5.86621 3.52057Z" fill="#F6BB42"/>
<path d="M7.96555 4.22369V9.37737H1.4082V4.22369H4.68945V5.16119H6.0957V4.22369H7.96555Z" fill="#FFCE54"/>
<path d="M4.68945 4.21877V4.22369H1.4082L2.11133 3.52057H2.80977H4.92383L4.68945 4.21877Z" fill="#F6BB42"/>
<path d="M11.9512 0.705078C13.5051 0.705078 14.7637 1.96367 14.7637 3.51758V10.0801H10.3105H8.43555V9.37695V4.22328V3.52016V3.51758C8.43555 1.96367 7.17695 0.705078 5.62305 0.705078H11.9512ZM10.1934 4.45508C9.86992 4.45508 9.60742 4.71523 9.60742 5.04102C9.60742 5.36469 9.86992 5.62695 10.1934 5.62695C10.5168 5.62695 10.7793 5.36469 10.7793 5.04102C10.7793 4.71523 10.5168 4.45508 10.1934 4.45508Z" fill="#ED5565"/>
<path d="M9.8418 5.27492C9.71219 5.27492 9.60742 5.17016 9.60742 5.04055V0.705078C9.60742 0.575469 9.71219 0.470703 9.8418 0.470703C9.97141 0.470703 10.0762 0.575469 10.0762 0.705078V5.04055C10.0762 5.17016 9.97141 5.27492 9.8418 5.27492Z" fill="#CCD1D9"/>
<path d="M9.37305 11.7169V14.0606C9.37305 14.1902 9.47781 14.295 9.60742 14.295C9.73703 14.295 9.8418 14.1902 9.8418 14.0606V11.7169C9.8418 11.4586 10.0518 11.2484 10.3101 11.2481V11.0133V10.7794C9.79328 10.7796 9.37305 11.2001 9.37305 11.7169Z" fill="#844747"/>
<path d="M4.2207 7.9707H2.3457C2.21609 7.9707 2.11133 7.86594 2.11133 7.73633C2.11133 7.60672 2.21609 7.50195 2.3457 7.50195H4.2207C4.35031 7.50195 4.45508 7.60672 4.45508 7.73633C4.45508 7.86594 4.35031 7.9707 4.2207 7.9707Z" fill="#EDAB37"/>
<path d="M3.2832 8.67773H2.3457C2.21609 8.67773 2.11133 8.57297 2.11133 8.44336C2.11133 8.31375 2.21609 8.20898 2.3457 8.20898H3.2832C3.41281 8.20898 3.51758 8.31375 3.51758 8.44336C3.51758 8.57297 3.41281 8.67773 3.2832 8.67773Z" fill="#EDAB37"/>
<path d="M10.1934 4.45508C10.5168 4.45508 10.7793 4.71523 10.7793 5.04102C10.7793 5.36469 10.5168 5.62695 10.1934 5.62695C9.86992 5.62695 9.60742 5.36469 9.60742 5.04102C9.60742 4.71523 9.86992 4.45508 10.1934 4.45508Z" fill="#E6E9ED"/>
<path d="M11.4824 1.17383C11.4824 1.30273 11.377 1.4082 11.248 1.4082H9.8418C9.71289 1.4082 9.60742 1.30273 9.60742 1.17383V0.939453C9.60742 0.810547 9.60742 0.599609 9.60742 0.470703C9.60742 0.341797 9.71289 0.236328 9.8418 0.236328H11.248C11.377 0.236328 11.4824 0.341797 11.4824 0.470703V0.939453V1.17383Z" fill="#E6E9ED"/>
</g>
<defs>
<clipPath id="clip0_2421_5904">
<rect width="15" height="15" fill="white"/>
</clipPath>
</defs>
</svg>
