<svg width="24" height="24" viewBox="0 0 24 24" fill="none" xmlns="http://www.w3.org/2000/svg">
<g clip-path="url(#clip0_2421_5897)">
<path d="M6.88082 17.4722C7.04082 17.4722 7.07282 17.4562 7.21682 17.4242L10.0968 16.8482C10.4008 16.7682 10.7048 16.6242 10.9448 16.3842L17.9208 9.40816C18.9928 8.33616 18.9928 6.49615 17.9208 5.42415L17.3288 4.80015C16.2568 3.72815 14.4008 3.72815 13.3288 4.80015L6.35282 11.7922C6.12882 12.0162 5.96882 12.3362 5.88882 12.6402L5.28082 15.5522C5.20082 16.0962 5.36082 16.6242 5.74482 17.0082C6.04882 17.3122 6.49682 17.4722 6.88082 17.4722ZM7.42482 12.9442L14.4008 5.95215C14.8648 5.48815 15.7128 5.48815 16.1608 5.95215L16.7688 6.56015C17.3128 7.10416 17.3128 7.87215 16.7688 8.40016L9.80882 15.3922L6.84882 15.8882L7.42482 12.9442Z" fill="#EB6698"/>
<path d="M17.8582 18.4722H6.05023C5.58623 18.4722 5.28223 18.7762 5.28223 19.2402C5.28223 19.7042 5.66623 20.0082 6.05023 20.0082H17.7942C18.2582 20.0082 18.6422 19.7042 18.6422 19.2402C18.6262 18.7762 18.2422 18.4722 17.8582 18.4722Z" fill="#EB6698"/>
</g>
<defs>
<clipPath id="clip0_2421_5897">
<rect width="16" height="16" fill="white" transform="translate(4 4)"/>
</clipPath>
</defs>
</svg>
