<svg width="16" height="16" viewBox="0 0 16 16" fill="none" xmlns="http://www.w3.org/2000/svg">
<path d="M13.6777 7.21942C13.6774 7.21915 13.6771 7.21878 13.6768 7.21851L8.78128 2.32364C8.57261 2.1149 8.29517 2 8.00007 2C7.70496 2 7.42753 2.1149 7.21877 2.32364L2.32579 7.21603C2.32414 7.21768 2.3224 7.21942 2.32085 7.22107C1.89234 7.65201 1.89307 8.3512 2.32295 8.78104C2.51935 8.97751 2.77866 9.09122 3.056 9.10321C3.06735 9.10431 3.0787 9.10486 3.09015 9.10486H3.28518V12.7071C3.28518 13.42 3.86531 14 4.57831 14H6.4936C6.6878 14 6.8452 13.8425 6.8452 13.6484V10.8242C6.8452 10.4989 7.1099 10.2343 7.43522 10.2343H8.56491C8.89023 10.2343 9.15485 10.4989 9.15485 10.8242V13.6484C9.15485 13.8425 9.31224 14 9.50645 14H11.4217C12.1348 14 12.7149 13.42 12.7149 12.7071V9.10486H12.8958C13.1908 9.10486 13.4682 8.98996 13.6771 8.78113C14.1074 8.35065 14.1076 7.65018 13.6777 7.21942ZM13.1798 8.284C13.1039 8.35989 13.003 8.40173 12.8958 8.40173H12.3633C12.1691 8.40173 12.0117 8.55911 12.0117 8.7533V12.7071C12.0117 13.0323 11.7471 13.2969 11.4217 13.2969H9.85804V10.8242C9.85804 10.1113 9.278 9.53122 8.56491 9.53122H7.43522C6.72214 9.53122 6.142 10.1113 6.142 10.8242V13.2969H4.57831C4.25308 13.2969 3.98837 13.0323 3.98837 12.7071V8.7533C3.98837 8.55911 3.83098 8.40173 3.63677 8.40173H3.11341C3.10791 8.40137 3.10251 8.40109 3.09692 8.401C2.99218 8.39917 2.89393 8.3576 2.82032 8.28391C2.66375 8.12735 2.66375 7.87256 2.82032 7.71591C2.82041 7.71591 2.82041 7.71582 2.8205 7.71573L2.82077 7.71545L7.71614 2.82077C7.79195 2.74487 7.89276 2.70312 8.00007 2.70312C8.10729 2.70312 8.2081 2.74487 8.284 2.82077L13.1783 7.71445C13.179 7.71518 13.1798 7.71591 13.1806 7.71664C13.3363 7.87347 13.336 8.12772 13.1798 8.284Z" fill="#016630"/>
</svg>
