<svg width="15" height="15" viewBox="0 0 15 15" fill="none" xmlns="http://www.w3.org/2000/svg">
<path d="M7.5 0C4.59076 0 2.22656 2.36426 2.22656 5.27344C2.22656 6.25781 2.49908 7.21585 3.01761 8.04202L7.14252 14.7924C7.21289 14.9067 7.31836 14.977 7.44144 14.9946C7.60837 15.0209 7.79303 14.9507 7.88968 14.7837L12.0264 7.97168C12.5185 7.16312 12.7734 6.22269 12.7734 5.27344C12.7734 2.36426 10.4092 0 7.5 0ZM7.5 7.91016C6.0235 7.91016 4.86328 6.71484 4.86328 5.27344C4.86328 3.82321 6.04978 2.63672 7.5 2.63672C8.95022 2.63672 10.1367 3.82321 10.1367 5.27344C10.1367 6.70605 8.99411 7.91016 7.5 7.91016Z" fill="#314158"/>
<path d="M7.5 0V2.63672C8.95022 2.63672 10.1367 3.82321 10.1367 5.27344C10.1367 6.70605 8.99411 7.91016 7.5 7.91016V14.9997C7.64997 15.0032 7.80419 14.9313 7.88965 14.7837L12.0264 7.97168C12.5185 7.16312 12.7734 6.22269 12.7734 5.27344C12.7734 2.36426 10.4092 0 7.5 0Z" fill="#1D293D"/>
</svg>
